<svg width="127" height="127" viewBox="0 0 127 127" fill="none" xmlns="http://www.w3.org/2000/svg">
<path d="M4.13058 90.517L10.5306 76.517H11.9906L18.3906 90.517H16.8306L10.9506 77.377H11.5506L5.67058 90.517H4.13058ZM6.65058 86.777L7.09058 85.577H15.2306L15.6706 86.777H6.65058ZM21.6192 90.517L17.6592 80.017H19.0192L22.6192 89.757H21.9992L25.6992 80.017H26.9192L30.5792 89.757H29.9592L33.6192 80.017H34.9192L30.9392 90.517H29.5992L26.0792 81.357H26.4992L22.9592 90.517H21.6192ZM42.9248 90.517V88.197L42.8648 87.817V83.937C42.8648 83.0436 42.6115 82.357 42.1048 81.877C41.6115 81.397 40.8715 81.157 39.8848 81.157C39.2048 81.157 38.5581 81.2703 37.9448 81.497C37.3315 81.7236 36.8115 82.0236 36.3848 82.397L35.7448 81.337C36.2781 80.8836 36.9181 80.537 37.6648 80.297C38.4115 80.0436 39.1981 79.917 40.0248 79.917C41.3848 79.917 42.4315 80.257 43.1648 80.937C43.9115 81.6036 44.2848 82.6236 44.2848 83.997V90.517H42.9248ZM39.3048 90.617C38.5181 90.617 37.8315 90.4903 37.2448 90.237C36.6715 89.9703 36.2315 89.6103 35.9248 89.157C35.6181 88.6903 35.4648 88.157 35.4648 87.557C35.4648 87.0103 35.5915 86.517 35.8448 86.077C36.1115 85.6236 36.5381 85.2636 37.1248 84.997C37.7248 84.717 38.5248 84.577 39.5248 84.577H43.1448V85.637H39.5648C38.5515 85.637 37.8448 85.817 37.4448 86.177C37.0581 86.537 36.8648 86.9836 36.8648 87.517C36.8648 88.117 37.0981 88.597 37.5648 88.957C38.0315 89.317 38.6848 89.497 39.5248 89.497C40.3248 89.497 41.0115 89.317 41.5848 88.957C42.1715 88.5836 42.5981 88.0503 42.8648 87.357L43.1848 88.337C42.9181 89.0303 42.4515 89.5836 41.7848 89.997C41.1315 90.4103 40.3048 90.617 39.3048 90.617ZM47.7417 90.517V80.017H49.1017V82.877L48.9617 82.377C49.255 81.577 49.7483 80.9703 50.4417 80.557C51.135 80.1303 51.995 79.917 53.0217 79.917V81.297C52.9683 81.297 52.915 81.297 52.8617 81.297C52.8083 81.2836 52.755 81.277 52.7017 81.277C51.595 81.277 50.7283 81.617 50.1017 82.297C49.475 82.9636 49.1617 83.917 49.1617 85.157V90.517H47.7417ZM59.2951 90.617C58.2951 90.617 57.3951 90.3903 56.5951 89.937C55.8084 89.4836 55.1884 88.857 54.7351 88.057C54.2818 87.2436 54.0551 86.3103 54.0551 85.257C54.0551 84.1903 54.2818 83.257 54.7351 82.457C55.1884 81.657 55.8084 81.037 56.5951 80.597C57.3951 80.1436 58.2951 79.917 59.2951 79.917C60.2151 79.917 61.0351 80.1236 61.7551 80.537C62.4884 80.9503 63.0684 81.557 63.4951 82.357C63.9351 83.1436 64.1551 84.1103 64.1551 85.257C64.1551 86.3903 63.9418 87.357 63.5151 88.157C63.0884 88.957 62.5084 89.5703 61.7751 89.997C61.0551 90.4103 60.2284 90.617 59.2951 90.617ZM59.3951 89.357C60.1418 89.357 60.8084 89.1903 61.3951 88.857C61.9951 88.5103 62.4618 88.0303 62.7951 87.417C63.1418 86.7903 63.3151 86.0703 63.3151 85.257C63.3151 84.4303 63.1418 83.7103 62.7951 83.097C62.4618 82.4836 61.9951 82.0103 61.3951 81.677C60.8084 81.3303 60.1418 81.157 59.3951 81.157C58.6618 81.157 58.0018 81.3303 57.4151 81.677C56.8284 82.0103 56.3618 82.4836 56.0151 83.097C55.6684 83.7103 55.4951 84.4303 55.4951 85.257C55.4951 86.0703 55.6684 86.7903 56.0151 87.417C56.3618 88.0303 56.8284 88.5103 57.4151 88.857C58.0018 89.1903 58.6618 89.357 59.3951 89.357ZM63.3551 90.517V87.357L63.4951 85.237L63.2951 83.117V75.677H64.7151V90.517H63.3551ZM71.0898 90.617C70.2231 90.617 69.4031 90.497 68.6298 90.257C67.8565 90.0036 67.2498 89.6903 66.8098 89.317L67.4498 88.197C67.8765 88.517 68.4231 88.797 69.0898 89.037C69.7565 89.2636 70.4565 89.377 71.1898 89.377C72.1898 89.377 72.9098 89.2236 73.3498 88.917C73.7898 88.597 74.0098 88.177 74.0098 87.657C74.0098 87.2703 73.8831 86.9703 73.6298 86.757C73.3898 86.5303 73.0698 86.3636 72.6698 86.257C72.2698 86.137 71.8231 86.037 71.3298 85.957C70.8365 85.877 70.3431 85.7836 69.8498 85.677C69.3698 85.5703 68.9298 85.417 68.5298 85.217C68.1298 85.0036 67.8031 84.717 67.5498 84.357C67.3098 83.997 67.1898 83.517 67.1898 82.917C67.1898 82.3436 67.3498 81.8303 67.6698 81.377C67.9898 80.9236 68.4565 80.5703 69.0698 80.317C69.6965 80.0503 70.4565 79.917 71.3498 79.917C72.0298 79.917 72.7098 80.0103 73.3898 80.197C74.0698 80.3703 74.6298 80.6036 75.0698 80.897L74.4498 82.037C73.9831 81.717 73.4831 81.4903 72.9498 81.357C72.4165 81.2103 71.8831 81.137 71.3498 81.137C70.4031 81.137 69.7031 81.3036 69.2498 81.637C68.8098 81.957 68.5898 82.3703 68.5898 82.877C68.5898 83.277 68.7098 83.5903 68.9498 83.817C69.2031 84.0436 69.5298 84.2236 69.9298 84.357C70.3431 84.477 70.7898 84.577 71.2698 84.657C71.7631 84.737 72.2498 84.837 72.7298 84.957C73.2231 85.0636 73.6698 85.217 74.0698 85.417C74.4831 85.6036 74.8098 85.877 75.0498 86.237C75.3031 86.5836 75.4298 87.0436 75.4298 87.617C75.4298 88.2303 75.2565 88.7636 74.9098 89.217C74.5765 89.657 74.0831 90.0036 73.4298 90.257C72.7898 90.497 72.0098 90.617 71.0898 90.617ZM9.55058 119.517L4.83058 105.517H6.35058L10.7706 118.697H10.0106L14.5706 105.517H15.9306L20.4306 118.697H19.7106L24.1706 105.517H25.5906L20.8706 119.517H19.3106L15.0106 107.017H15.4106L11.0906 119.517H9.55058ZM27.5456 119.517V109.017H28.9656V119.517H27.5456ZM28.2656 106.697C27.9722 106.697 27.7256 106.597 27.5256 106.397C27.3256 106.197 27.2256 105.957 27.2256 105.677C27.2256 105.397 27.3256 105.164 27.5256 104.977C27.7256 104.777 27.9722 104.677 28.2656 104.677C28.5589 104.677 28.8056 104.77 29.0056 104.957C29.2056 105.144 29.3056 105.377 29.3056 105.657C29.3056 105.95 29.2056 106.197 29.0056 106.397C28.8189 106.597 28.5722 106.697 28.2656 106.697ZM37.8767 108.917C38.73 108.917 39.4767 109.084 40.1167 109.417C40.77 109.737 41.2767 110.23 41.6367 110.897C42.01 111.564 42.1967 112.404 42.1967 113.417V119.517H40.7767V113.557C40.7767 112.45 40.4967 111.617 39.9367 111.057C39.39 110.484 38.6167 110.197 37.6167 110.197C36.87 110.197 36.2167 110.35 35.6567 110.657C35.11 110.95 34.6833 111.384 34.3767 111.957C34.0833 112.517 33.9367 113.197 33.9367 113.997V119.517H32.5167V109.017H33.8767V111.897L33.6567 111.357C33.99 110.597 34.5233 110.004 35.2567 109.577C35.99 109.137 36.8633 108.917 37.8767 108.917ZM50.9923 108.917C51.8456 108.917 52.5923 109.084 53.2323 109.417C53.8856 109.737 54.3923 110.23 54.7523 110.897C55.1256 111.564 55.3123 112.404 55.3123 113.417V119.517H53.8923V113.557C53.8923 112.45 53.6123 111.617 53.0523 111.057C52.5056 110.484 51.7323 110.197 50.7323 110.197C49.9856 110.197 49.3323 110.35 48.7723 110.657C48.2256 110.95 47.799 111.384 47.4923 111.957C47.199 112.517 47.0523 113.197 47.0523 113.997V119.517H45.6323V109.017H46.9923V111.897L46.7723 111.357C47.1056 110.597 47.639 110.004 48.3723 109.577C49.1056 109.137 49.979 108.917 50.9923 108.917ZM58.7479 119.517V109.017H60.1679V119.517H58.7479ZM59.4679 106.697C59.1746 106.697 58.9279 106.597 58.7279 106.397C58.5279 106.197 58.4279 105.957 58.4279 105.677C58.4279 105.397 58.5279 105.164 58.7279 104.977C58.9279 104.777 59.1746 104.677 59.4679 104.677C59.7613 104.677 60.0079 104.77 60.2079 104.957C60.4079 105.144 60.5079 105.377 60.5079 105.657C60.5079 105.95 60.4079 106.197 60.2079 106.397C60.0213 106.597 59.7746 106.697 59.4679 106.697ZM69.079 108.917C69.9323 108.917 70.679 109.084 71.319 109.417C71.9723 109.737 72.479 110.23 72.839 110.897C73.2123 111.564 73.399 112.404 73.399 113.417V119.517H71.979V113.557C71.979 112.45 71.699 111.617 71.139 111.057C70.5923 110.484 69.819 110.197 68.819 110.197C68.0723 110.197 67.419 110.35 66.859 110.657C66.3123 110.95 65.8857 111.384 65.579 111.957C65.2857 112.517 65.139 113.197 65.139 113.997V119.517H63.719V109.017H65.079V111.897L64.859 111.357C65.1923 110.597 65.7257 110.004 66.459 109.577C67.1923 109.137 68.0657 108.917 69.079 108.917ZM81.3146 123.497C80.3546 123.497 79.4346 123.357 78.5546 123.077C77.6746 122.797 76.9613 122.397 76.4146 121.877L77.1346 120.797C77.628 121.237 78.2346 121.584 78.9546 121.837C79.688 122.104 80.4613 122.237 81.2746 122.237C82.608 122.237 83.588 121.924 84.2146 121.297C84.8413 120.684 85.1546 119.724 85.1546 118.417V115.797L85.3546 113.997L85.2146 112.197V109.017H86.5746V118.237C86.5746 120.05 86.128 121.377 85.2346 122.217C84.3546 123.07 83.048 123.497 81.3146 123.497ZM81.0546 119.117C80.0546 119.117 79.1546 118.904 78.3546 118.477C77.5546 118.037 76.9213 117.43 76.4546 116.657C76.0013 115.884 75.7746 114.997 75.7746 113.997C75.7746 112.997 76.0013 112.117 76.4546 111.357C76.9213 110.584 77.5546 109.984 78.3546 109.557C79.1546 109.13 80.0546 108.917 81.0546 108.917C81.988 108.917 82.828 109.11 83.5746 109.497C84.3213 109.884 84.9146 110.457 85.3546 111.217C85.7946 111.977 86.0146 112.904 86.0146 113.997C86.0146 115.09 85.7946 116.017 85.3546 116.777C84.9146 117.537 84.3213 118.117 83.5746 118.517C82.828 118.917 81.988 119.117 81.0546 119.117ZM81.1946 117.857C81.968 117.857 82.6546 117.697 83.2546 117.377C83.8546 117.044 84.328 116.59 84.6746 116.017C85.0213 115.43 85.1946 114.757 85.1946 113.997C85.1946 113.237 85.0213 112.57 84.6746 111.997C84.328 111.424 83.8546 110.977 83.2546 110.657C82.6546 110.324 81.968 110.157 81.1946 110.157C80.4346 110.157 79.748 110.324 79.1346 110.657C78.5346 110.977 78.0613 111.424 77.7146 111.997C77.3813 112.57 77.2146 113.237 77.2146 113.997C77.2146 114.757 77.3813 115.43 77.7146 116.017C78.0613 116.59 78.5346 117.044 79.1346 117.377C79.748 117.697 80.4346 117.857 81.1946 117.857Z" fill="#D9D9D9"/>
<path d="M2.418 56V52.838L20.46 35.168C22.1133 33.556 23.3533 32.1507 24.18 30.952C25.0067 29.712 25.5647 28.5547 25.854 27.48C26.1433 26.4053 26.288 25.3927 26.288 24.442C26.288 21.9207 25.42 19.9367 23.684 18.49C21.9893 17.0433 19.468 16.32 16.12 16.32C13.5573 16.32 11.284 16.7127 9.3 17.498C7.35733 18.2833 5.68333 19.5027 4.278 21.156L1.116 18.428C2.81067 16.444 4.98067 14.9147 7.626 13.84C10.2713 12.7653 13.2267 12.228 16.492 12.228C19.4267 12.228 21.9687 12.7033 24.118 13.654C26.2673 14.5633 27.9207 15.9067 29.078 17.684C30.2767 19.4613 30.876 21.5487 30.876 23.946C30.876 25.3513 30.6693 26.736 30.256 28.1C29.884 29.464 29.1813 30.9107 28.148 32.44C27.156 33.928 25.6887 35.6227 23.746 37.524L7.192 53.768L5.952 52.032H32.86V56H2.418ZM53.0943 56.372C49.6223 56.372 46.6256 55.876 44.1043 54.884C41.6243 53.892 39.7023 52.466 38.3383 50.606C37.0156 48.7047 36.3543 46.4727 36.3543 43.91C36.3543 41.43 36.9949 39.322 38.2763 37.586C39.5989 35.8087 41.5003 34.4447 43.9803 33.494C46.5016 32.5433 49.5396 32.068 53.0943 32.068C56.6076 32.068 59.6249 32.5433 62.1463 33.494C64.6676 34.4447 66.5896 35.8087 67.9123 37.586C69.2763 39.322 69.9583 41.43 69.9583 43.91C69.9583 46.4727 69.2763 48.7047 67.9123 50.606C66.5483 52.466 64.6056 53.892 62.0843 54.884C59.5629 55.876 56.5663 56.372 53.0943 56.372ZM53.0943 52.59C56.9383 52.59 59.9349 51.8047 62.0843 50.234C64.2749 48.6633 65.3703 46.5347 65.3703 43.848C65.3703 41.1613 64.2749 39.0533 62.0843 37.524C59.9349 35.9533 56.9383 35.168 53.0943 35.168C49.2503 35.168 46.2536 35.9533 44.1043 37.524C41.9549 39.0533 40.8803 41.1613 40.8803 43.848C40.8803 46.5347 41.9549 48.6633 44.1043 50.234C46.2536 51.8047 49.2503 52.59 53.0943 52.59ZM53.0943 34.61C49.8703 34.61 47.1216 34.176 44.8483 33.308C42.6163 32.44 40.9009 31.2 39.7023 29.588C38.5036 27.9347 37.9043 25.9713 37.9043 23.698C37.9043 21.3007 38.5243 19.2547 39.7643 17.56C41.0456 15.824 42.8229 14.5013 45.0963 13.592C47.3696 12.6827 50.0356 12.228 53.0943 12.228C56.1529 12.228 58.8189 12.6827 61.0923 13.592C63.4069 14.5013 65.2049 15.824 66.4863 17.56C67.7676 19.2547 68.4083 21.3007 68.4083 23.698C68.4083 25.9713 67.8089 27.9347 66.6103 29.588C65.4116 31.2 63.6549 32.44 61.3403 33.308C59.0669 34.176 56.3183 34.61 53.0943 34.61ZM53.0943 31.634C56.4836 31.634 59.1289 30.9313 61.0303 29.526C62.9316 28.1207 63.8823 26.24 63.8823 23.884C63.8823 21.404 62.8903 19.482 60.9063 18.118C58.9636 16.7127 56.3596 16.01 53.0943 16.01C49.8289 16.01 47.2249 16.7127 45.2823 18.118C43.3396 19.482 42.3683 21.3833 42.3683 23.822C42.3683 26.2193 43.2983 28.1207 45.1583 29.526C47.0596 30.9313 49.7049 31.634 53.0943 31.634Z" fill="white"/>
<path d="M86.9274 47.444V21.156H90.8334V47.444H86.9274ZM75.3954 36.16V32.502H102.365V36.16H75.3954Z" fill="url(#paint0_linear_9_55)"/>
<defs>
<linearGradient id="paint0_linear_9_55" x1="162.867" y1="34.5075" x2="51.8973" y2="44.1793" gradientUnits="userSpaceOnUse">
<stop stop-color="#237249"/>
<stop offset="1" stop-color="#35C66B"/>
</linearGradient>
</defs>
</svg>
