<svg width="127" height="127" viewBox="0 0 127 127" fill="none" xmlns="http://www.w3.org/2000/svg">
<path d="M16.6106 76.517H18.0706V90.517H16.6106V76.517ZM7.85058 90.517H6.37058V76.517H7.85058V90.517ZM16.7506 84.057H7.69058V82.757H16.7506V84.057ZM28.5201 90.517V88.197L28.4601 87.817V83.937C28.4601 83.0436 28.2068 82.357 27.7001 81.877C27.2068 81.397 26.4668 81.157 25.4801 81.157C24.8001 81.157 24.1534 81.2703 23.5401 81.497C22.9268 81.7236 22.4068 82.0236 21.9801 82.397L21.3401 81.337C21.8734 80.8836 22.5134 80.537 23.2601 80.297C24.0068 80.0436 24.7934 79.917 25.6201 79.917C26.9801 79.917 28.0268 80.257 28.7601 80.937C29.5068 81.6036 29.8801 82.6236 29.8801 83.997V90.517H28.5201ZM24.9001 90.617C24.1134 90.617 23.4268 90.4903 22.8401 90.237C22.2668 89.9703 21.8268 89.6103 21.5201 89.157C21.2134 88.6903 21.0601 88.157 21.0601 87.557C21.0601 87.0103 21.1868 86.517 21.4401 86.077C21.7068 85.6236 22.1334 85.2636 22.7201 84.997C23.3201 84.717 24.1201 84.577 25.1201 84.577H28.7401V85.637H25.1601C24.1468 85.637 23.4401 85.817 23.0401 86.177C22.6534 86.537 22.4601 86.9836 22.4601 87.517C22.4601 88.117 22.6934 88.597 23.1601 88.957C23.6268 89.317 24.2801 89.497 25.1201 89.497C25.9201 89.497 26.6068 89.317 27.1801 88.957C27.7668 88.5836 28.1934 88.0503 28.4601 87.357L28.7801 88.337C28.5134 89.0303 28.0468 89.5836 27.3801 89.997C26.7268 90.4103 25.9001 90.617 24.9001 90.617ZM38.757 90.617C37.8503 90.617 37.0303 90.4103 36.297 89.997C35.5636 89.5703 34.977 88.9636 34.537 88.177C34.1103 87.377 33.897 86.4036 33.897 85.257C33.897 84.1103 34.1103 83.1436 34.537 82.357C34.9637 81.557 35.5437 80.9503 36.277 80.537C37.0103 80.1236 37.837 79.917 38.757 79.917C39.757 79.917 40.6503 80.1436 41.437 80.597C42.237 81.037 42.8637 81.6636 43.317 82.477C43.7703 83.277 43.997 84.2036 43.997 85.257C43.997 86.3236 43.7703 87.257 43.317 88.057C42.8637 88.857 42.237 89.4836 41.437 89.937C40.6503 90.3903 39.757 90.617 38.757 90.617ZM33.337 94.397V80.017H34.697V83.177L34.557 85.277L34.757 87.397V94.397H33.337ZM38.657 89.357C39.4037 89.357 40.0703 89.1903 40.657 88.857C41.2437 88.5103 41.7103 88.0303 42.057 87.417C42.4037 86.7903 42.577 86.0703 42.577 85.257C42.577 84.4436 42.4037 83.7303 42.057 83.117C41.7103 82.5036 41.2437 82.0236 40.657 81.677C40.0703 81.3303 39.4037 81.157 38.657 81.157C37.9103 81.157 37.237 81.3303 36.637 81.677C36.0503 82.0236 35.5837 82.5036 35.237 83.117C34.9037 83.7303 34.737 84.4436 34.737 85.257C34.737 86.0703 34.9037 86.7903 35.237 87.417C35.5837 88.0303 36.0503 88.5103 36.637 88.857C37.237 89.1903 37.9103 89.357 38.657 89.357ZM51.9117 90.617C51.005 90.617 50.185 90.4103 49.4517 89.997C48.7183 89.5703 48.1317 88.9636 47.6917 88.177C47.265 87.377 47.0517 86.4036 47.0517 85.257C47.0517 84.1103 47.265 83.1436 47.6917 82.357C48.1183 81.557 48.6983 80.9503 49.4317 80.537C50.165 80.1236 50.9917 79.917 51.9117 79.917C52.9117 79.917 53.805 80.1436 54.5917 80.597C55.3917 81.037 56.0183 81.6636 56.4717 82.477C56.925 83.277 57.1517 84.2036 57.1517 85.257C57.1517 86.3236 56.925 87.257 56.4717 88.057C56.0183 88.857 55.3917 89.4836 54.5917 89.937C53.805 90.3903 52.9117 90.617 51.9117 90.617ZM46.4917 94.397V80.017H47.8517V83.177L47.7117 85.277L47.9117 87.397V94.397H46.4917ZM51.8117 89.357C52.5583 89.357 53.225 89.1903 53.8117 88.857C54.3983 88.5103 54.865 88.0303 55.2117 87.417C55.5583 86.7903 55.7317 86.0703 55.7317 85.257C55.7317 84.4436 55.5583 83.7303 55.2117 83.117C54.865 82.5036 54.3983 82.0236 53.8117 81.677C53.225 81.3303 52.5583 81.157 51.8117 81.157C51.065 81.157 50.3917 81.3303 49.7917 81.677C49.205 82.0236 48.7383 82.5036 48.3917 83.117C48.0583 83.7303 47.8917 84.4436 47.8917 85.257C47.8917 86.0703 48.0583 86.7903 48.3917 87.417C48.7383 88.0303 49.205 88.5103 49.7917 88.857C50.3917 89.1903 51.065 89.357 51.8117 89.357ZM59.4334 94.497C58.9401 94.497 58.4667 94.417 58.0134 94.257C57.5734 94.097 57.1934 93.857 56.8734 93.537L57.5334 92.477C57.8001 92.7303 58.0867 92.9236 58.3934 93.057C58.7134 93.2036 59.0667 93.277 59.4534 93.277C59.9201 93.277 60.3201 93.1436 60.6534 92.877C61.0001 92.6236 61.3267 92.1703 61.6334 91.517L62.3134 89.977L62.4734 89.757L66.7934 80.017H68.1934L62.9334 91.777C62.6401 92.457 62.3134 92.997 61.9534 93.397C61.6067 93.797 61.2267 94.077 60.8134 94.237C60.4001 94.4103 59.9401 94.497 59.4334 94.497ZM62.2334 90.817L57.3934 80.017H58.8734L63.1534 89.657L62.2334 90.817ZM12.4506 119.637C11.3972 119.637 10.4239 119.464 9.53058 119.117C8.63724 118.757 7.86391 118.257 7.21058 117.617C6.55724 116.977 6.04391 116.224 5.67058 115.357C5.31058 114.49 5.13058 113.544 5.13058 112.517C5.13058 111.49 5.31058 110.544 5.67058 109.677C6.04391 108.81 6.55724 108.057 7.21058 107.417C7.87724 106.777 8.65724 106.284 9.55058 105.937C10.4439 105.577 11.4172 105.397 12.4706 105.397C13.4839 105.397 14.4372 105.57 15.3306 105.917C16.2239 106.25 16.9772 106.757 17.5906 107.437L16.6506 108.377C16.0772 107.79 15.4439 107.37 14.7506 107.117C14.0572 106.85 13.3106 106.717 12.5106 106.717C11.6706 106.717 10.8906 106.864 10.1706 107.157C9.45058 107.437 8.82391 107.844 8.29058 108.377C7.75724 108.897 7.33724 109.51 7.03058 110.217C6.73724 110.91 6.59058 111.677 6.59058 112.517C6.59058 113.357 6.73724 114.13 7.03058 114.837C7.33724 115.53 7.75724 116.144 8.29058 116.677C8.82391 117.197 9.45058 117.604 10.1706 117.897C10.8906 118.177 11.6706 118.317 12.5106 118.317C13.3106 118.317 14.0572 118.184 14.7506 117.917C15.4439 117.65 16.0772 117.224 16.6506 116.637L17.5906 117.577C16.9772 118.257 16.2239 118.77 15.3306 119.117C14.4372 119.464 13.4772 119.637 12.4506 119.637ZM24.034 119.617C23.1407 119.617 22.3607 119.45 21.694 119.117C21.0273 118.784 20.5073 118.284 20.134 117.617C19.774 116.95 19.594 116.117 19.594 115.117V109.017H21.014V114.957C21.014 116.077 21.2873 116.924 21.834 117.497C22.394 118.057 23.174 118.337 24.174 118.337C24.9073 118.337 25.5407 118.19 26.074 117.897C26.6207 117.59 27.034 117.15 27.314 116.577C27.6073 116.004 27.754 115.317 27.754 114.517V109.017H29.174V119.517H27.814V116.637L28.034 117.157C27.7007 117.93 27.1807 118.537 26.474 118.977C25.7807 119.404 24.9673 119.617 24.034 119.617ZM35.5515 119.617C34.6848 119.617 33.8648 119.497 33.0915 119.257C32.3182 119.004 31.7115 118.69 31.2715 118.317L31.9115 117.197C32.3382 117.517 32.8848 117.797 33.5515 118.037C34.2182 118.264 34.9182 118.377 35.6515 118.377C36.6515 118.377 37.3715 118.224 37.8115 117.917C38.2515 117.597 38.4715 117.177 38.4715 116.657C38.4715 116.27 38.3448 115.97 38.0915 115.757C37.8515 115.53 37.5315 115.364 37.1315 115.257C36.7315 115.137 36.2848 115.037 35.7915 114.957C35.2982 114.877 34.8048 114.784 34.3115 114.677C33.8315 114.57 33.3915 114.417 32.9915 114.217C32.5915 114.004 32.2648 113.717 32.0115 113.357C31.7715 112.997 31.6515 112.517 31.6515 111.917C31.6515 111.344 31.8115 110.83 32.1315 110.377C32.4515 109.924 32.9182 109.57 33.5315 109.317C34.1582 109.05 34.9182 108.917 35.8115 108.917C36.4915 108.917 37.1715 109.01 37.8515 109.197C38.5315 109.37 39.0915 109.604 39.5315 109.897L38.9115 111.037C38.4448 110.717 37.9448 110.49 37.4115 110.357C36.8782 110.21 36.3448 110.137 35.8115 110.137C34.8648 110.137 34.1648 110.304 33.7115 110.637C33.2715 110.957 33.0515 111.37 33.0515 111.877C33.0515 112.277 33.1715 112.59 33.4115 112.817C33.6648 113.044 33.9915 113.224 34.3915 113.357C34.8048 113.477 35.2515 113.577 35.7315 113.657C36.2248 113.737 36.7115 113.837 37.1915 113.957C37.6848 114.064 38.1315 114.217 38.5315 114.417C38.9448 114.604 39.2715 114.877 39.5115 115.237C39.7648 115.584 39.8915 116.044 39.8915 116.617C39.8915 117.23 39.7182 117.764 39.3715 118.217C39.0382 118.657 38.5448 119.004 37.8915 119.257C37.2515 119.497 36.4715 119.617 35.5515 119.617ZM45.4171 119.617C44.4305 119.617 43.6705 119.35 43.1371 118.817C42.6038 118.284 42.3371 117.53 42.3371 116.557V106.697H43.7571V116.477C43.7571 117.09 43.9105 117.564 44.2171 117.897C44.5371 118.23 44.9905 118.397 45.5771 118.397C46.2038 118.397 46.7238 118.217 47.1371 117.857L47.6371 118.877C47.3571 119.13 47.0171 119.317 46.6171 119.437C46.2305 119.557 45.8305 119.617 45.4171 119.617ZM40.4571 110.197V109.017H46.9571V110.197H40.4571ZM53.731 119.617C52.7177 119.617 51.8044 119.39 50.991 118.937C50.191 118.47 49.5577 117.837 49.091 117.037C48.6244 116.224 48.391 115.297 48.391 114.257C48.391 113.204 48.6244 112.277 49.091 111.477C49.5577 110.677 50.191 110.05 50.991 109.597C51.791 109.144 52.7044 108.917 53.731 108.917C54.771 108.917 55.691 109.144 56.491 109.597C57.3044 110.05 57.9377 110.677 58.391 111.477C58.8577 112.277 59.091 113.204 59.091 114.257C59.091 115.297 58.8577 116.224 58.391 117.037C57.9377 117.837 57.3044 118.47 56.491 118.937C55.6777 119.39 54.7577 119.617 53.731 119.617ZM53.731 118.357C54.491 118.357 55.1644 118.19 55.751 117.857C56.3377 117.51 56.7977 117.03 57.131 116.417C57.4777 115.79 57.651 115.07 57.651 114.257C57.651 113.43 57.4777 112.71 57.131 112.097C56.7977 111.484 56.3377 111.01 55.751 110.677C55.1644 110.33 54.4977 110.157 53.751 110.157C53.0044 110.157 52.3377 110.33 51.751 110.677C51.1644 111.01 50.6977 111.484 50.351 112.097C50.0044 112.71 49.831 113.43 49.831 114.257C49.831 115.07 50.0044 115.79 50.351 116.417C50.6977 117.03 51.1644 117.51 51.751 117.857C52.3377 118.19 52.9977 118.357 53.731 118.357ZM74.7101 108.917C75.5634 108.917 76.3034 109.084 76.9301 109.417C77.5701 109.737 78.0634 110.23 78.4101 110.897C78.7701 111.564 78.9501 112.404 78.9501 113.417V119.517H77.5301V113.557C77.5301 112.45 77.2634 111.617 76.7301 111.057C76.2101 110.484 75.4701 110.197 74.5101 110.197C73.7901 110.197 73.1634 110.35 72.6301 110.657C72.1101 110.95 71.7034 111.384 71.4101 111.957C71.1301 112.517 70.9901 113.197 70.9901 113.997V119.517H69.5701V113.557C69.5701 112.45 69.3034 111.617 68.7701 111.057C68.2368 110.484 67.4901 110.197 66.5301 110.197C65.8234 110.197 65.2034 110.35 64.6701 110.657C64.1368 110.95 63.7234 111.384 63.4301 111.957C63.1501 112.517 63.0101 113.197 63.0101 113.997V119.517H61.5901V109.017H62.9501V111.857L62.7301 111.357C63.0501 110.597 63.5634 110.004 64.2701 109.577C64.9901 109.137 65.8368 108.917 66.8101 108.917C67.8368 108.917 68.7101 109.177 69.4301 109.697C70.1501 110.204 70.6168 110.97 70.8301 111.997L70.2701 111.777C70.5768 110.924 71.1168 110.237 71.8901 109.717C72.6768 109.184 73.6168 108.917 74.7101 108.917ZM86.861 119.617C85.7677 119.617 84.8077 119.39 83.981 118.937C83.1544 118.47 82.5077 117.837 82.041 117.037C81.5744 116.224 81.341 115.297 81.341 114.257C81.341 113.217 81.561 112.297 82.001 111.497C82.4544 110.697 83.0677 110.07 83.841 109.617C84.6277 109.15 85.5077 108.917 86.481 108.917C87.4677 108.917 88.341 109.144 89.101 109.597C89.8744 110.037 90.481 110.664 90.921 111.477C91.361 112.277 91.581 113.204 91.581 114.257C91.581 114.324 91.5744 114.397 91.561 114.477C91.561 114.544 91.561 114.617 91.561 114.697H82.421V113.637H90.801L90.241 114.057C90.241 113.297 90.0744 112.624 89.741 112.037C89.421 111.437 88.981 110.97 88.421 110.637C87.861 110.304 87.2144 110.137 86.481 110.137C85.761 110.137 85.1144 110.304 84.541 110.637C83.9677 110.97 83.521 111.437 83.201 112.037C82.881 112.637 82.721 113.324 82.721 114.097V114.317C82.721 115.117 82.8944 115.824 83.241 116.437C83.601 117.037 84.0944 117.51 84.721 117.857C85.361 118.19 86.0877 118.357 86.901 118.357C87.541 118.357 88.1344 118.244 88.681 118.017C89.241 117.79 89.721 117.444 90.121 116.977L90.921 117.897C90.4544 118.457 89.8677 118.884 89.161 119.177C88.4677 119.47 87.701 119.617 86.861 119.617ZM94.0714 119.517V109.017H95.4314V111.877L95.2914 111.377C95.5847 110.577 96.078 109.97 96.7714 109.557C97.4647 109.13 98.3247 108.917 99.3514 108.917V110.297C99.298 110.297 99.2447 110.297 99.1914 110.297C99.138 110.284 99.0847 110.277 99.0314 110.277C97.9247 110.277 97.058 110.617 96.4314 111.297C95.8047 111.964 95.4914 112.917 95.4914 114.157V119.517H94.0714Z" fill="#D9D9D9"/>
<path d="M2.418 56V52.838L20.46 35.168C22.1133 33.556 23.3533 32.1507 24.18 30.952C25.0067 29.712 25.5647 28.5547 25.854 27.48C26.1433 26.4053 26.288 25.3927 26.288 24.442C26.288 21.9207 25.42 19.9367 23.684 18.49C21.9893 17.0433 19.468 16.32 16.12 16.32C13.5573 16.32 11.284 16.7127 9.3 17.498C7.35733 18.2833 5.68333 19.5027 4.278 21.156L1.116 18.428C2.81067 16.444 4.98067 14.9147 7.626 13.84C10.2713 12.7653 13.2267 12.228 16.492 12.228C19.4267 12.228 21.9687 12.7033 24.118 13.654C26.2673 14.5633 27.9207 15.9067 29.078 17.684C30.2767 19.4613 30.876 21.5487 30.876 23.946C30.876 25.3513 30.6693 26.736 30.256 28.1C29.884 29.464 29.1813 30.9107 28.148 32.44C27.156 33.928 25.6887 35.6227 23.746 37.524L7.192 53.768L5.952 52.032H32.86V56H2.418ZM42.9883 47.568L43.1123 41.926L63.3863 23.45H68.7803L54.4583 37.152L51.9783 39.26L42.9883 47.568ZM39.5163 56V9.996H43.9183V56H39.5163ZM64.7503 56L51.1723 39.074L54.0243 35.664L70.1443 56H64.7503Z" fill="white"/>
<path d="M84.6266 47.444V21.156H88.5326V47.444H84.6266ZM73.0946 36.16V32.502H100.065V36.16H73.0946Z" fill="url(#paint0_linear_9_52)"/>
<defs>
<linearGradient id="paint0_linear_9_52" x1="159.823" y1="34.5075" x2="50.8969" y2="43.8237" gradientUnits="userSpaceOnUse">
<stop offset="0.476257" stop-color="#237249"/>
<stop offset="1" stop-color="#35C66B"/>
</linearGradient>
</defs>
</svg>
