<svg width="127" height="127" viewBox="0 0 127 127" fill="none" xmlns="http://www.w3.org/2000/svg">
<path d="M6.37058 90.517V76.517H11.6106C12.7972 76.517 13.8172 76.7103 14.6706 77.097C15.5239 77.4703 16.1772 78.017 16.6306 78.737C17.0972 79.4436 17.3306 80.3036 17.3306 81.317C17.3306 82.3036 17.0972 83.157 16.6306 83.877C16.1772 84.5836 15.5239 85.1303 14.6706 85.517C13.8172 85.9036 12.7972 86.097 11.6106 86.097H7.19058L7.85058 85.397V90.517H6.37058ZM7.85058 85.517L7.19058 84.797H11.5706C12.9706 84.797 14.0306 84.497 14.7506 83.897C15.4839 83.2836 15.8506 82.4236 15.8506 81.317C15.8506 80.197 15.4839 79.3303 14.7506 78.717C14.0306 78.1036 12.9706 77.797 11.5706 77.797H7.19058L7.85058 77.097V85.517ZM19.5768 90.517V80.017H20.9368V82.877L20.7968 82.377C21.0902 81.577 21.5835 80.9703 22.2768 80.557C22.9702 80.1303 23.8302 79.917 24.8568 79.917V81.297C24.8035 81.297 24.7502 81.297 24.6968 81.297C24.6435 81.2836 24.5902 81.277 24.5368 81.277C23.4302 81.277 22.5635 81.617 21.9368 82.297C21.3102 82.9636 20.9968 83.917 20.9968 85.157V90.517H19.5768ZM31.4103 90.617C30.3169 90.617 29.3569 90.3903 28.5303 89.937C27.7036 89.4703 27.0569 88.837 26.5903 88.037C26.1236 87.2236 25.8903 86.297 25.8903 85.257C25.8903 84.217 26.1103 83.297 26.5503 82.497C27.0036 81.697 27.6169 81.0703 28.3903 80.617C29.1769 80.1503 30.0569 79.917 31.0303 79.917C32.0169 79.917 32.8903 80.1436 33.6503 80.597C34.4236 81.037 35.0303 81.6636 35.4703 82.477C35.9103 83.277 36.1303 84.2036 36.1303 85.257C36.1303 85.3236 36.1236 85.397 36.1103 85.477C36.1103 85.5436 36.1103 85.617 36.1103 85.697H26.9703V84.637H35.3503L34.7903 85.057C34.7903 84.297 34.6236 83.6236 34.2903 83.037C33.9703 82.437 33.5303 81.9703 32.9703 81.637C32.4103 81.3036 31.7636 81.137 31.0303 81.137C30.3103 81.137 29.6636 81.3036 29.0903 81.637C28.5169 81.9703 28.0703 82.437 27.7503 83.037C27.4303 83.637 27.2703 84.3236 27.2703 85.097V85.317C27.2703 86.117 27.4436 86.8236 27.7903 87.437C28.1503 88.037 28.6436 88.5103 29.2703 88.857C29.9103 89.1903 30.6369 89.357 31.4503 89.357C32.0903 89.357 32.6836 89.2436 33.2303 89.017C33.7903 88.7903 34.2703 88.4436 34.6703 87.977L35.4703 88.897C35.0036 89.457 34.4169 89.8836 33.7103 90.177C33.0169 90.4703 32.2503 90.617 31.4103 90.617ZM51.7406 79.917C52.5939 79.917 53.3339 80.0836 53.9606 80.417C54.6006 80.737 55.0939 81.2303 55.4406 81.897C55.8006 82.5636 55.9806 83.4036 55.9806 84.417V90.517H54.5606V84.557C54.5606 83.4503 54.2939 82.617 53.7606 82.057C53.2406 81.4836 52.5006 81.197 51.5406 81.197C50.8206 81.197 50.1939 81.3503 49.6606 81.657C49.1406 81.9503 48.7339 82.3836 48.4406 82.957C48.1606 83.517 48.0206 84.197 48.0206 84.997V90.517H46.6006V84.557C46.6006 83.4503 46.3339 82.617 45.8006 82.057C45.2672 81.4836 44.5206 81.197 43.5606 81.197C42.8539 81.197 42.2339 81.3503 41.7006 81.657C41.1672 81.9503 40.7539 82.3836 40.4606 82.957C40.1806 83.517 40.0406 84.197 40.0406 84.997V90.517H38.6206V80.017H39.9806V82.857L39.7606 82.357C40.0806 81.597 40.5939 81.0036 41.3006 80.577C42.0206 80.137 42.8672 79.917 43.8406 79.917C44.8672 79.917 45.7406 80.177 46.4606 80.697C47.1806 81.2036 47.6472 81.9703 47.8606 82.997L47.3006 82.777C47.6072 81.9236 48.1472 81.237 48.9206 80.717C49.7072 80.1836 50.6472 79.917 51.7406 79.917ZM59.4315 90.517V80.017H60.8515V90.517H59.4315ZM60.1515 77.697C59.8582 77.697 59.6115 77.597 59.4115 77.397C59.2115 77.197 59.1115 76.957 59.1115 76.677C59.1115 76.397 59.2115 76.1636 59.4115 75.977C59.6115 75.777 59.8582 75.677 60.1515 75.677C60.4448 75.677 60.6915 75.7703 60.8915 75.957C61.0915 76.1436 61.1915 76.377 61.1915 76.657C61.1915 76.9503 61.0915 77.197 60.8915 77.397C60.7048 77.597 60.4582 77.697 60.1515 77.697ZM68.7426 90.617C67.8493 90.617 67.0693 90.4503 66.4026 90.117C65.7359 89.7836 65.2159 89.2836 64.8426 88.617C64.4826 87.9503 64.3026 87.117 64.3026 86.117V80.017H65.7226V85.957C65.7226 87.077 65.9959 87.9236 66.5426 88.497C67.1026 89.057 67.8826 89.337 68.8826 89.337C69.6159 89.337 70.2493 89.1903 70.7826 88.897C71.3293 88.5903 71.7426 88.1503 72.0226 87.577C72.3159 87.0036 72.4626 86.317 72.4626 85.517V80.017H73.8826V90.517H72.5226V87.637L72.7426 88.157C72.4093 88.9303 71.8893 89.537 71.1826 89.977C70.4893 90.4036 69.6759 90.617 68.7426 90.617ZM90.5601 79.917C91.4134 79.917 92.1534 80.0836 92.7801 80.417C93.4201 80.737 93.9134 81.2303 94.2601 81.897C94.6201 82.5636 94.8001 83.4036 94.8001 84.417V90.517H93.3801V84.557C93.3801 83.4503 93.1134 82.617 92.5801 82.057C92.0601 81.4836 91.3201 81.197 90.3601 81.197C89.6401 81.197 89.0134 81.3503 88.4801 81.657C87.9601 81.9503 87.5534 82.3836 87.2601 82.957C86.9801 83.517 86.8401 84.197 86.8401 84.997V90.517H85.4201V84.557C85.4201 83.4503 85.1534 82.617 84.6201 82.057C84.0868 81.4836 83.3401 81.197 82.3801 81.197C81.6734 81.197 81.0534 81.3503 80.5201 81.657C79.9868 81.9503 79.5734 82.3836 79.2801 82.957C79.0001 83.517 78.8601 84.197 78.8601 84.997V90.517H77.4401V80.017H78.8001V82.857L78.5801 82.357C78.9001 81.597 79.4134 81.0036 80.1201 80.577C80.8401 80.137 81.6868 79.917 82.6601 79.917C83.6868 79.917 84.5601 80.177 85.2801 80.697C86.0001 81.2036 86.4668 81.9703 86.6801 82.997L86.1201 82.777C86.4268 81.9236 86.9668 81.237 87.7401 80.717C88.5268 80.1836 89.4668 79.917 90.5601 79.917ZM12.0106 119.637C10.2239 119.637 8.81724 119.124 7.79058 118.097C6.76391 117.07 6.25058 115.55 6.25058 113.537V105.517H7.73058V113.477C7.73058 115.13 8.10391 116.35 8.85058 117.137C9.59724 117.924 10.6506 118.317 12.0106 118.317C13.3839 118.317 14.4439 117.924 15.1906 117.137C15.9372 116.35 16.3106 115.13 16.3106 113.477V105.517H17.7506V113.537C17.7506 115.55 17.2372 117.07 16.2106 118.097C15.1972 119.124 13.7972 119.637 12.0106 119.637ZM24.3304 119.617C23.4638 119.617 22.6438 119.497 21.8704 119.257C21.0971 119.004 20.4904 118.69 20.0504 118.317L20.6904 117.197C21.1171 117.517 21.6638 117.797 22.3304 118.037C22.9971 118.264 23.6971 118.377 24.4304 118.377C25.4304 118.377 26.1504 118.224 26.5904 117.917C27.0304 117.597 27.2504 117.177 27.2504 116.657C27.2504 116.27 27.1238 115.97 26.8704 115.757C26.6304 115.53 26.3104 115.364 25.9104 115.257C25.5104 115.137 25.0638 115.037 24.5704 114.957C24.0771 114.877 23.5838 114.784 23.0904 114.677C22.6104 114.57 22.1704 114.417 21.7704 114.217C21.3704 114.004 21.0438 113.717 20.7904 113.357C20.5504 112.997 20.4304 112.517 20.4304 111.917C20.4304 111.344 20.5904 110.83 20.9104 110.377C21.2304 109.924 21.6971 109.57 22.3104 109.317C22.9371 109.05 23.6971 108.917 24.5904 108.917C25.2704 108.917 25.9504 109.01 26.6304 109.197C27.3104 109.37 27.8704 109.604 28.3104 109.897L27.6904 111.037C27.2238 110.717 26.7238 110.49 26.1904 110.357C25.6571 110.21 25.1238 110.137 24.5904 110.137C23.6438 110.137 22.9438 110.304 22.4904 110.637C22.0504 110.957 21.8304 111.37 21.8304 111.877C21.8304 112.277 21.9504 112.59 22.1904 112.817C22.4438 113.044 22.7704 113.224 23.1704 113.357C23.5838 113.477 24.0304 113.577 24.5104 113.657C25.0038 113.737 25.4904 113.837 25.9704 113.957C26.4638 114.064 26.9104 114.217 27.3104 114.417C27.7238 114.604 28.0504 114.877 28.2904 115.237C28.5438 115.584 28.6704 116.044 28.6704 116.617C28.6704 117.23 28.4971 117.764 28.1504 118.217C27.8171 118.657 27.3238 119.004 26.6704 119.257C26.0304 119.497 25.2504 119.617 24.3304 119.617ZM35.336 119.617C34.2427 119.617 33.2827 119.39 32.456 118.937C31.6294 118.47 30.9827 117.837 30.516 117.037C30.0494 116.224 29.816 115.297 29.816 114.257C29.816 113.217 30.036 112.297 30.476 111.497C30.9294 110.697 31.5427 110.07 32.316 109.617C33.1027 109.15 33.9827 108.917 34.956 108.917C35.9427 108.917 36.816 109.144 37.576 109.597C38.3494 110.037 38.956 110.664 39.396 111.477C39.836 112.277 40.056 113.204 40.056 114.257C40.056 114.324 40.0494 114.397 40.036 114.477C40.036 114.544 40.036 114.617 40.036 114.697H30.896V113.637H39.276L38.716 114.057C38.716 113.297 38.5494 112.624 38.216 112.037C37.896 111.437 37.456 110.97 36.896 110.637C36.336 110.304 35.6894 110.137 34.956 110.137C34.236 110.137 33.5894 110.304 33.016 110.637C32.4427 110.97 31.996 111.437 31.676 112.037C31.356 112.637 31.196 113.324 31.196 114.097V114.317C31.196 115.117 31.3694 115.824 31.716 116.437C32.076 117.037 32.5694 117.51 33.196 117.857C33.836 118.19 34.5627 118.357 35.376 118.357C36.016 118.357 36.6094 118.244 37.156 118.017C37.716 117.79 38.196 117.444 38.596 116.977L39.396 117.897C38.9294 118.457 38.3427 118.884 37.636 119.177C36.9427 119.47 36.176 119.617 35.336 119.617ZM42.5464 119.517V109.017H43.9064V111.877L43.7664 111.377C44.0597 110.577 44.553 109.97 45.2464 109.557C45.9397 109.13 46.7997 108.917 47.8264 108.917V110.297C47.773 110.297 47.7197 110.297 47.6664 110.297C47.613 110.284 47.5597 110.277 47.5064 110.277C46.3997 110.277 45.533 110.617 44.9064 111.297C44.2797 111.964 43.9664 112.917 43.9664 114.157V119.517H42.5464ZM52.9546 119.617C52.088 119.617 51.268 119.497 50.4946 119.257C49.7213 119.004 49.1146 118.69 48.6746 118.317L49.3146 117.197C49.7413 117.517 50.288 117.797 50.9546 118.037C51.6213 118.264 52.3213 118.377 53.0546 118.377C54.0546 118.377 54.7746 118.224 55.2146 117.917C55.6546 117.597 55.8746 117.177 55.8746 116.657C55.8746 116.27 55.748 115.97 55.4946 115.757C55.2546 115.53 54.9346 115.364 54.5346 115.257C54.1346 115.137 53.688 115.037 53.1946 114.957C52.7013 114.877 52.208 114.784 51.7146 114.677C51.2346 114.57 50.7946 114.417 50.3946 114.217C49.9946 114.004 49.668 113.717 49.4146 113.357C49.1746 112.997 49.0546 112.517 49.0546 111.917C49.0546 111.344 49.2146 110.83 49.5346 110.377C49.8546 109.924 50.3213 109.57 50.9346 109.317C51.5613 109.05 52.3213 108.917 53.2146 108.917C53.8946 108.917 54.5746 109.01 55.2546 109.197C55.9346 109.37 56.4946 109.604 56.9346 109.897L56.3146 111.037C55.848 110.717 55.348 110.49 54.8146 110.357C54.2813 110.21 53.748 110.137 53.2146 110.137C52.268 110.137 51.568 110.304 51.1146 110.637C50.6746 110.957 50.4546 111.37 50.4546 111.877C50.4546 112.277 50.5746 112.59 50.8146 112.817C51.068 113.044 51.3946 113.224 51.7946 113.357C52.208 113.477 52.6546 113.577 53.1346 113.657C53.628 113.737 54.1146 113.837 54.5946 113.957C55.088 114.064 55.5346 114.217 55.9346 114.417C56.348 114.604 56.6746 114.877 56.9146 115.237C57.168 115.584 57.2946 116.044 57.2946 116.617C57.2946 117.23 57.1213 117.764 56.7746 118.217C56.4413 118.657 55.948 119.004 55.2946 119.257C54.6546 119.497 53.8746 119.617 52.9546 119.617Z" fill="#D9D9D9"/>
<path d="M16.74 12.228C20.584 12.228 23.8287 13.096 26.474 14.832C29.1193 16.5267 31.124 18.986 32.488 22.21C33.852 25.434 34.534 29.34 34.534 33.928C34.534 38.8053 33.6867 42.918 31.992 46.266C30.3387 49.614 28.024 52.1353 25.048 53.83C22.072 55.5247 18.6207 56.372 14.694 56.372C12.7513 56.372 10.8913 56.186 9.114 55.814C7.378 55.442 5.80733 54.8427 4.402 54.016L6.2 50.42C7.316 51.164 8.59733 51.7013 10.044 52.032C11.532 52.3213 13.0613 52.466 14.632 52.466C19.3027 52.466 23.0227 50.978 25.792 48.002C28.6027 45.026 30.008 40.5827 30.008 34.672C30.008 33.7213 29.946 32.5847 29.822 31.262C29.7393 29.9393 29.512 28.6167 29.14 27.294L30.69 28.472C30.2767 30.6213 29.388 32.4607 28.024 33.99C26.7013 35.478 25.048 36.6147 23.064 37.4C21.1213 38.1853 18.9513 38.578 16.554 38.578C13.702 38.578 11.16 38.0407 8.928 36.966C6.73733 35.8913 5.022 34.3827 3.782 32.44C2.542 30.4973 1.922 28.2033 1.922 25.558C1.922 22.83 2.56267 20.474 3.844 18.49C5.12533 16.506 6.882 14.9767 9.114 13.902C11.3873 12.786 13.9293 12.228 16.74 12.228ZM16.926 16.01C14.8593 16.01 13.02 16.4027 11.408 17.188C9.83733 17.932 8.59733 19.0067 7.688 20.412C6.77867 21.8173 6.324 23.4913 6.324 25.434C6.324 28.286 7.29533 30.5593 9.238 32.254C11.222 33.9487 13.888 34.796 17.236 34.796C19.468 34.796 21.4107 34.3827 23.064 33.556C24.7587 32.7293 26.0607 31.5927 26.97 30.146C27.9207 28.6993 28.396 27.0873 28.396 25.31C28.396 23.698 27.962 22.1893 27.094 20.784C26.226 19.3787 24.9447 18.242 23.25 17.374C21.5553 16.4647 19.4473 16.01 16.926 16.01ZM45.5312 47.568L45.6552 41.926L65.9293 23.45H71.3233L57.0012 37.152L54.5213 39.26L45.5312 47.568ZM42.0592 56V9.996H46.4612V56H42.0592ZM67.2933 56L53.7152 39.074L56.5672 35.664L72.6873 56H67.2933Z" fill="white"/>
<path d="M87.1696 47.444V21.156H91.0756V47.444H87.1696ZM75.6376 36.16V32.502H102.608V36.16H75.6376Z" fill="url(#paint0_linear_9_51)"/>
<defs>
<linearGradient id="paint0_linear_9_51" x1="162.867" y1="34.5075" x2="51.8973" y2="44.1793" gradientUnits="userSpaceOnUse">
<stop stop-color="#237249"/>
<stop offset="1" stop-color="#35C66B"/>
</linearGradient>
</defs>
</svg>
