<svg width="114" height="17" viewBox="0 0 114 17" fill="none" xmlns="http://www.w3.org/2000/svg">
<path d="M6.49281 16.6392C5.23093 16.6392 4.01307 16.4852 2.83923 16.177C1.68006 15.8542 0.733648 15.4434 -3.4328e-06 14.9445L1.43062 11.7311C2.12025 12.1713 2.91259 12.5381 3.80765 12.8316C4.71738 13.1104 5.61977 13.2497 6.51482 13.2497C7.11642 13.2497 7.60063 13.1984 7.96745 13.0957C8.33428 12.9783 8.59839 12.8316 8.7598 12.6555C8.93587 12.4647 9.02391 12.2446 9.02391 11.9952C9.02391 11.6431 8.86251 11.3643 8.5397 11.1588C8.21689 10.9534 7.79871 10.7847 7.28516 10.6526C6.7716 10.5206 6.19935 10.3885 5.56841 10.2564C4.95215 10.1244 4.32854 9.95565 3.6976 9.75023C3.08133 9.54481 2.51642 9.28069 2.00287 8.95789C1.48931 8.62041 1.07113 8.18755 0.748321 7.65932C0.425514 7.11642 0.264111 6.43412 0.264111 5.61243C0.264111 4.68803 0.513553 3.85167 1.01244 3.10335C1.52599 2.35502 2.28899 1.75343 3.30143 1.29856C4.31387 0.843699 5.57575 0.616267 7.08707 0.616267C8.09951 0.616267 9.08994 0.733651 10.0584 0.96842C11.0415 1.18852 11.9145 1.51866 12.6775 1.95885L11.3349 5.19425C10.6013 4.79808 9.87495 4.50462 9.15597 4.31387C8.43699 4.10845 7.74002 4.00574 7.06506 4.00574C6.46347 4.00574 5.97926 4.07177 5.61243 4.20382C5.24561 4.32121 4.98149 4.48261 4.82009 4.68803C4.65868 4.89346 4.57798 5.12822 4.57798 5.39234C4.57798 5.72982 4.73205 6.00127 5.04018 6.20669C5.36299 6.39744 5.78117 6.55885 6.29473 6.6909C6.82296 6.80829 7.39521 6.93301 8.01147 7.06506C8.64241 7.19712 9.26602 7.36586 9.88228 7.57128C10.5132 7.76203 11.0855 8.02615 11.599 8.36363C12.1126 8.68644 12.5234 9.11929 12.8316 9.66219C13.1544 10.1904 13.3158 10.858 13.3158 11.6651C13.3158 12.5601 13.059 13.3891 12.5454 14.1521C12.0466 14.9005 11.2909 15.5021 10.2785 15.9569C9.28069 16.4118 8.01881 16.6392 6.49281 16.6392ZM19.7967 16.5292C18.2707 16.5292 17.0822 16.155 16.2312 15.4067C15.3801 14.6437 14.9546 13.4992 14.9546 11.9732V1.73875H19.1364V11.9292C19.1364 12.3547 19.2538 12.6922 19.4886 12.9416C19.7234 13.1764 20.0242 13.2938 20.391 13.2938C20.8899 13.2938 21.3154 13.169 21.6675 12.9196L22.702 15.8469C22.3498 16.0816 21.917 16.2504 21.4034 16.3531C20.8899 16.4705 20.3543 16.5292 19.7967 16.5292ZM13.2159 7.96746V4.8421H21.8656V7.96746H13.2159ZM30.9394 16.3311V14.1081L30.6533 13.5579V9.46411C30.6533 8.80382 30.4479 8.2976 30.037 7.94545C29.6408 7.57862 29.0026 7.39521 28.1222 7.39521C27.5499 7.39521 26.9703 7.49058 26.3834 7.68133C25.7965 7.85741 25.2976 8.10685 24.8868 8.42966L23.4782 5.59042C24.1531 5.15023 24.9601 4.81275 25.8992 4.57799C26.853 4.32854 27.7994 4.20382 28.7384 4.20382C30.6753 4.20382 32.1719 4.65135 33.2284 5.54641C34.2995 6.42679 34.8351 7.81339 34.8351 9.70621V16.3311H30.9394ZM27.4179 16.5292C26.4641 16.5292 25.6571 16.3678 24.9968 16.045C24.3365 15.7222 23.8303 15.282 23.4782 14.7244C23.1407 14.1668 22.9719 13.5432 22.9719 12.8536C22.9719 12.1199 23.1554 11.489 23.5222 10.9608C23.9037 10.4179 24.4833 10.007 25.2609 9.72822C26.0386 9.43476 27.0437 9.28803 28.2762 9.28803H31.0935V11.467H28.8485C28.1735 11.467 27.6967 11.577 27.4179 11.7971C27.1538 12.0172 27.0217 12.3107 27.0217 12.6775C27.0217 13.0443 27.1611 13.3378 27.4399 13.5579C27.7187 13.778 28.1002 13.888 28.5844 13.888C29.0392 13.888 29.4501 13.778 29.8169 13.5579C30.1984 13.3231 30.4772 12.971 30.6533 12.5014L31.2255 14.0421C31.0054 14.8638 30.5726 15.4874 29.927 15.9129C29.296 16.3237 28.4597 16.5292 27.4179 16.5292ZM36.8144 16.3311V4.40191H40.7981V7.87942L40.2039 6.88899C40.556 5.99393 41.1283 5.32631 41.9206 4.88612C42.713 4.43126 43.674 4.20382 44.8039 4.20382V7.96746C44.6131 7.93811 44.4444 7.92344 44.2977 7.92344C44.1656 7.90876 44.0189 7.90143 43.8575 7.90143C43.0064 7.90143 42.3168 8.1362 41.7886 8.60573C41.2603 9.0606 40.9962 9.80892 40.9962 10.8507V16.3311H36.8144ZM46.0459 16.3311V0.9244H53.9253C55.9502 0.9244 57.4615 1.29856 58.4592 2.04689C59.457 2.78054 59.9559 3.74896 59.9559 4.95215C59.9559 5.74449 59.7431 6.44146 59.3176 7.04306C58.9068 7.62998 58.3199 8.09951 57.5569 8.45167C56.8085 8.78915 55.9135 8.95789 54.8717 8.95789L55.3119 7.90143C56.3977 7.90143 57.3441 8.07017 58.1511 8.40765C58.9581 8.73045 59.5817 9.20733 60.0219 9.83827C60.4768 10.4545 60.7042 11.2102 60.7042 12.1053C60.7042 13.4405 60.1613 14.4823 59.0755 15.2306C58.0044 15.9643 56.4344 16.3311 54.3655 16.3311H46.0459ZM50.3597 13.1837H54.0133C54.7616 13.1837 55.3266 13.059 55.7081 12.8096C56.1042 12.5454 56.3023 12.1493 56.3023 11.621C56.3023 11.0928 56.1042 10.704 55.7081 10.4545C55.3266 10.1904 54.7616 10.0584 54.0133 10.0584H50.0516V7.04306H53.353C54.0867 7.04306 54.6369 6.91833 55.0038 6.66889C55.3706 6.41945 55.554 6.04529 55.554 5.54641C55.554 5.04752 55.3706 4.6807 55.0038 4.44593C54.6369 4.19649 54.0867 4.07177 53.353 4.07177H50.3597V13.1837ZM67.1212 16.5292C66.1528 16.5292 65.2797 16.3384 64.5021 15.9569C63.7391 15.5754 63.1375 14.9812 62.6973 14.1741C62.2718 13.3525 62.059 12.318 62.059 11.0708V4.40191H66.2408V10.3885C66.2408 11.3129 66.4096 11.9732 66.747 12.3694C67.0992 12.7655 67.5907 12.9636 68.2217 12.9636C68.6325 12.9636 69.0067 12.8682 69.3442 12.6775C69.6817 12.4868 69.9531 12.186 70.1585 11.7751C70.3639 11.3496 70.4667 10.8067 70.4667 10.1464V4.40191H74.6485V16.3311H70.6647V12.9636L71.4351 13.91C71.0242 14.7904 70.43 15.4507 69.6523 15.8909C68.8746 16.3164 68.0309 16.5292 67.1212 16.5292ZM82.7784 16.5292C81.4579 16.5292 80.2767 16.2651 79.2349 15.7368C78.2078 15.2086 77.4008 14.4823 76.8138 13.5579C76.2269 12.6188 75.9335 11.5477 75.9335 10.3445C75.9335 9.1413 76.2269 8.0775 76.8138 7.1531C77.4008 6.2287 78.2078 5.50972 79.2349 4.99617C80.2767 4.46794 81.4579 4.20382 82.7784 4.20382C84.1283 4.20382 85.2948 4.48995 86.2779 5.0622C87.261 5.63444 87.958 6.44146 88.3688 7.48325L85.1334 9.13396C84.8547 8.57639 84.5098 8.17288 84.099 7.92344C83.6882 7.65932 83.2406 7.52727 82.7564 7.52727C82.2722 7.52727 81.832 7.63731 81.4358 7.85741C81.0397 8.0775 80.7242 8.40031 80.4894 8.82583C80.2693 9.23667 80.1593 9.74289 80.1593 10.3445C80.1593 10.9608 80.2693 11.4816 80.4894 11.9072C80.7242 12.3327 81.0397 12.6555 81.4358 12.8756C81.832 13.0957 82.2722 13.2057 82.7564 13.2057C83.2406 13.2057 83.6882 13.081 84.099 12.8316C84.5098 12.5675 84.8547 12.1566 85.1334 11.599L88.3688 13.2497C87.958 14.2915 87.261 15.0986 86.2779 15.6708C85.2948 16.243 84.1283 16.5292 82.7784 16.5292ZM92.7176 14.1301L92.8277 9.13396L97.6918 4.40191H102.644L97.2516 9.97033L95.1167 11.6871L92.7176 14.1301ZM89.2401 16.3311V-5.04908e-07H93.4219V16.3311H89.2401ZM97.9999 16.3311L94.3463 11.7531L96.9435 8.53971L103.062 16.3311H97.9999ZM107.596 16.5292C106.583 16.5292 105.593 16.4118 104.625 16.177C103.671 15.9422 102.901 15.6488 102.314 15.2966L103.568 12.4354C104.126 12.7729 104.779 13.0443 105.527 13.2497C106.275 13.4405 107.009 13.5359 107.728 13.5359C108.432 13.5359 108.916 13.4625 109.181 13.3158C109.459 13.169 109.599 12.971 109.599 12.7215C109.599 12.4868 109.467 12.318 109.203 12.2153C108.953 12.0979 108.616 12.0099 108.19 11.9512C107.779 11.8925 107.324 11.8265 106.826 11.7531C106.327 11.6797 105.82 11.5844 105.307 11.467C104.808 11.3349 104.346 11.1442 103.92 10.8947C103.509 10.6306 103.179 10.2785 102.93 9.83827C102.68 9.39808 102.556 8.8405 102.556 8.16554C102.556 7.40254 102.776 6.72759 103.216 6.14066C103.671 5.53907 104.331 5.06953 105.197 4.73205C106.063 4.3799 107.119 4.20382 108.366 4.20382C109.203 4.20382 110.046 4.29186 110.897 4.46794C111.763 4.62934 112.489 4.87878 113.076 5.21626L111.822 8.05549C111.235 7.71801 110.648 7.49058 110.061 7.3732C109.474 7.24114 108.916 7.17511 108.388 7.17511C107.684 7.17511 107.185 7.25581 106.892 7.41722C106.613 7.57862 106.473 7.77671 106.473 8.01148C106.473 8.24624 106.598 8.42966 106.848 8.56171C107.097 8.6791 107.427 8.77447 107.838 8.84784C108.264 8.90653 108.726 8.97256 109.225 9.04592C109.723 9.10462 110.222 9.19999 110.721 9.33205C111.235 9.46411 111.697 9.66219 112.108 9.92631C112.533 10.1757 112.871 10.5206 113.12 10.9608C113.37 11.3863 113.494 11.9365 113.494 12.6115C113.494 13.3451 113.267 14.0054 112.812 14.5923C112.372 15.1793 111.712 15.6488 110.831 16.0009C109.966 16.3531 108.887 16.5292 107.596 16.5292Z" fill="url(#paint0_linear_224_7)"/>
<defs>
<linearGradient id="paint0_linear_224_7" x1="113.538" y1="3.65666" x2="31.1575" y2="48.5274" gradientUnits="userSpaceOnUse">
<stop stop-color="#237249"/>
<stop offset="1" stop-color="#35C66B"/>
</linearGradient>
</defs>
</svg>
